{"title":"War of The Worlds 2005 BRRip 720p H264 AC3 - HIS [DivX Plus HD]","uid":5749680,"size":2327933241,"categoryP":"video","categoryS":"hd___movies","magnet":"?xt=urn:btih:793baed2d4efd306d03cbb91a7232ba07b56d0de&amp;dn=War+of+The+Worlds+2005+BRRip+720p+H264+AC3+-+HIS+%5BDivX+Plus+HD%5D&amp;tr=udp%3A%2F%2Ftracker.openbittorrent.com%3A80&amp;tr=udp%3A%2F%2Fopen.demonii.com%3A1337&amp;tr=udp%3A%2F%2Ftracker.coppersurfer.tk%3A6969&amp;tr=udp%3A%2F%2Fexodus.desync.com%3A6969","seeders":0,"leechers":0,"uploader":"his08","files":-1,"time":1281354521,"description":"Synopsis:\nRay Ferrier is a dock worker who is finishing a night of work in the morning, because he works the night shift. But when he gets home his young daughter Rachel and teenage son Robbie are staying with him at his house in Bayonne, New Jersey, while his pregnant ex-wife Mary Anne and her new husband Tim visit her parents in Boston for the weekend. But then the unthinkable and, ultimately, the unexpected happens to him in an extraordinary sense! Witnessing, and barely escaping the horror, first-hand, it's up to Ray to protect his two kids from terrorist and races up to Boston before one of them gets murdered by a large tripod machine in its path!\n\nGeneral\nComplete name                    : War of The Worlds 2005 BRRip 720p H264 AC3 - HIS\nFormat                           : Matroska\nFile size                        : 2.16 GiB (1/2 DVD)\nDuration                         : 1h 56mn\nOverall bit rate                 : 2 659 Kbps\n\nVideo                            \nID:                              : 1\nFormat                           : AVC\nFormat/Info                      : Advanced Video Codec\nFormat profile                   : &lt;a class=&quot;__cf_email__&quot; href=&quot;/cdn-cgi/l/email-protection&quot; data-cfemail=&quot;c28aaba5aa828ef6ecf2&quot;&gt;[email&amp;#160;protected]&lt;/a&gt;&lt;script data-cfhash='f9e31' type=&quot;text/javascript&quot;&gt;\n/* &lt;![CDATA[ */!function(){try{var t=&quot;currentScript&quot;in document?document.currentScript:function(){for(var t=document.getElementsByTagName(&quot;script&quot;),e=t.length;e--;)if(t[e].getAttribute(&quot;data-cfhash&quot;))return t[e]}();if(t&amp;&amp;t.previousSibling){var e,r,n,i,c=t.previousSibling,a=c.getAttribute(&quot;data-cfemail&quot;);if(a){for(e=&quot;&quot;,r=parseInt(a.substr(0,2),16),n=2;a.length-n;n+=2)i=parseInt(a.substr(n,2),16)^r,e+=String.fromCharCode(i);e=document.createTextNode(e),c.parentNode.replaceChild(e,c)}t.parentNode.removeChild(t);}}catch(u){}}()/* ]]&gt; */&lt;/script&gt;\nFormat settings, CABAC           : Yes\nFormat settings, ReFrames        : 4 frames\nMuxing mode                      : Container profile=&lt;a class=&quot;__cf_email__&quot; href=&quot;/cdn-cgi/l/email-protection&quot; data-cfemail=&quot;4712292c2928302907736977&quot;&gt;[email&amp;#160;protected]&lt;/a&gt;&lt;script data-cfhash='f9e31' type=&quot;text/javascript&quot;&gt;\n/* &lt;![CDATA[ */!function(){try{var t=&quot;currentScript&quot;in document?document.currentScript:function(){for(var t=document.getElementsByTagName(&quot;script&quot;),e=t.length;e--;)if(t[e].getAttribute(&quot;data-cfhash&quot;))return t[e]}();if(t&amp;&amp;t.previousSibling){var e,r,n,i,c=t.previousSibling,a=c.getAttribute(&quot;data-cfemail&quot;);if(a){for(e=&quot;&quot;,r=parseInt(a.substr(0,2),16),n=2;a.length-n;n+=2)i=parseInt(a.substr(n,2),16)^r,e+=String.fromCharCode(i);e=document.createTextNode(e),c.parentNode.replaceChild(e,c)}t.parentNode.removeChild(t);}}catch(u){}}()/* ]]&gt; */&lt;/script&gt;\nCodec ID                         : V_MPEG4/ISO/AVC\nDuration                         : 1h 56mn\nBit rate                         : 2 222 Kbps\nNominal bit rate                 : 2 275 Kbps\nWidth                            : 1 280 pixels\nHeight                           : 688 pixels\nDisplay aspect ratio             : 1.860\nFrame rate                       : 23.976 fps\nResolution                       : 24 bits\nColorimetry                      : 4:2:0\nScan type                        : Progressive\nBits/(Pixel*Frame)               : 0.105\nStream size                      : 1.81 GiB (83%)\nWriting library                  : x264 core 104 r1683 62997d6\n\nAudio\nID                               : 2\nFormat                           : AC-3\nFormat/Info                      : Audio Coding 3\nCodec ID                         : A_AC3\nDuration                         : 1h 56mn\nBit rate mode                    : Constant\nBit rate                         : 384 Kbps\nChannel(s)                       : 6 channels\nChannel positions                : Front: L C R, Surround: L R, LFE\nSampling rate                    : 48.0 KHz\nStream size                      : 320 MiB (14%)\n\n&quot;Divx Plus HD Compatible&quot;","torrent":{"xt":"urn:btih:793baed2d4efd306d03cbb91a7232ba07b56d0de","amp;dn":"War+of+The+Worlds+2005+BRRip+720p+H264+AC3+-+HIS+%5BDivX+Plus+HD%5D","amp;tr":["udp%3A%2F%2Ftracker.openbittorrent.com%3A80","udp%3A%2F%2Fopen.demonii.com%3A1337","udp%3A%2F%2Ftracker.coppersurfer.tk%3A6969","udp%3A%2F%2Fexodus.desync.com%3A6969"],"infoHash":"793baed2d4efd306d03cbb91a7232ba07b56d0de","infoHashBuffer":{"type":"Buffer","data":[121,59,174,210,212,239,211,6,208,60,187,145,167,35,43,160,123,86,208,222]},"announce":[],"urlList":[]}}